<?xml version="1.0" standalone="no"?>
<!DOCTYPE svg PUBLIC "-//W3C//DTD SVG 20010904//EN"
 "http://www.w3.org/TR/2001/REC-SVG-20010904/DTD/svg10.dtd">
<svg version="1.0" xmlns="http://www.w3.org/2000/svg"
 width="2048.000000pt" height="1536.000000pt" viewBox="0 0 2048.000000 1536.000000"
 preserveAspectRatio="xMidYMid meet">

<g transform="translate(0.000000,1536.000000) scale(0.100000,-0.100000)"
fill="#808080" stroke="none">
<path d="M9790 13174 c-1323 -111 -2518 -663 -3449 -1595 -850 -849 -1387
-1922 -1556 -3107 -43 -299 -54 -476 -50 -837 4 -509 53 -883 175 -1352 432
-1660 1660 -3052 3261 -3696 498 -201 1010 -324 1579 -379 179 -17 781 -17
960 0 1162 113 2176 532 3048 1261 1045 873 1726 2093 1916 3433 43 300 51
425 51 788 0 362 -8 488 -51 787 -206 1449 -983 2750 -2169 3633 -800 596
-1708 947 -2735 1056 -212 22 -758 27 -980 8z m980 -703 c504 -60 950 -180
1393 -374 l139 -61 -5 -47 c-16 -135 -131 -229 -282 -229 -124 0 -289 72 -402
175 -71 65 -72 65 -130 65 -285 -1 -805 -273 -1112 -581 -184 -185 -254 -353
-191 -456 l20 -33 60 36 c294 172 566 112 536 -119 -21 -152 -150 -360 -276
-443 -23 -16 -67 -33 -98 -39 -106 -21 -194 7 -400 129 -235 138 -335 160
-474 102 l-36 -15 18 -36 c15 -29 16 -42 8 -66 -34 -97 -332 -250 -643 -330
-63 -16 -120 -23 -190 -23 -142 -1 -142 -9 15 -170 203 -209 208 -282 21 -321
-186 -39 -275 -97 -258 -167 22 -84 251 -155 425 -130 218 31 342 142 374 336
l11 69 64 29 c228 103 414 70 602 -107 46 -44 155 -168 240 -275 239 -300 351
-401 518 -468 63 -25 79 -27 215 -27 80 0 149 2 151 5 3 3 -10 36 -28 75 -81
166 -65 336 45 493 101 143 293 258 466 278 80 10 219 -43 282 -106 72 -72 43
-152 -102 -284 -232 -209 -253 -235 -235 -283 9 -26 48 -47 112 -63 l45 -12
-10 -31 c-44 -129 -199 -235 -570 -391 -296 -124 -416 -188 -527 -277 l-63
-51 -87 12 c-113 16 -225 52 -334 106 -162 80 -256 148 -637 464 -345 285
-536 368 -802 349 -119 -9 -211 -37 -346 -105 -56 -29 -133 -62 -170 -74 -346
-110 -633 -430 -777 -864 -84 -252 -107 -556 -61 -779 20 -91 87 -262 145
-365 262 -473 677 -674 1476 -717 225 -12 212 -10 286 -60 202 -138 343 -371
434 -720 56 -211 89 -405 140 -815 50 -404 91 -639 145 -835 l32 -115 97 -83
c383 -333 758 -560 1021 -622 87 -20 205 -19 270 2 71 23 142 89 179 166 53
111 75 286 59 452 -21 205 36 505 158 837 160 434 397 898 898 1758 282 484
345 595 376 673 47 119 43 172 -15 183 -46 8 -104 -7 -335 -86 -221 -77 -333
-103 -436 -102 -89 1 -160 29 -208 82 -40 45 -51 98 -51 250 0 127 17 182 74
241 90 92 193 91 580 -6 252 -63 353 -78 480 -73 85 4 119 10 174 32 l68 28
46 -22 c118 -55 175 -63 508 -65 247 -3 322 -6 368 -19 192 -53 279 -169 321
-426 61 -374 167 -464 323 -272 24 29 43 49 43 45 0 -5 -20 -89 -45 -188 -179
-724 -530 -1397 -1029 -1975 -116 -135 -351 -370 -486 -486 -722 -623 -1586
-1011 -2520 -1133 -413 -54 -844 -54 -1260 0 -1286 167 -2448 850 -3233 1901
-422 565 -713 1221 -856 1930 l-30 148 24 90 c75 278 205 516 390 709 112 118
124 142 105 226 -36 160 -212 325 -447 417 -58 23 -83 38 -83 50 0 9 11 79 25
155 92 506 278 1031 521 1468 l45 80 127 0 c143 1 238 21 374 80 362 156 741
538 896 900 21 49 51 97 77 125 52 55 67 83 67 125 0 68 -51 125 -168 191
l-67 37 29 24 c49 41 333 226 444 290 604 348 1302 562 2025 622 195 16 707 6
905 -18z"/>
</g>
</svg>
